<?xml version="1.0" encoding="UTF-8"?>
<svg width="1325px" height="1325px" viewBox="0 0 1325 1325" version="1.1" xmlns="http://www.w3.org/2000/svg" xmlns:xlink="http://www.w3.org/1999/xlink">
    <!-- Generator: Sketch 52.6 (67491) - http://www.bohemiancoding.com/sketch -->
    <title>Group 32</title>
    <desc>Created with Sketch.</desc>
    <g id="Page-1" stroke="none" stroke-width="1" fill="none" fill-rule="evenodd">
        <g id="Group-32">
            <circle id="Oval" fill="#F28904" cx="662.5" cy="662.5" r="662.5"></circle>
            <path d="M589.35676,134.506229 C591.486523,138.871094 593.616285,139.101726 596.933633,135.364865 C599.063396,133.027379 599.614972,132.792852 602.06274,133.258011 C604.430019,133.727067 604.824566,134.196122 605.690201,137.388349 C606.165235,139.415729 607.662934,143.232064 609.084091,145.883552 C610.424761,148.610619 612.477981,154.219806 613.504592,158.425723 C614.527257,162.635535 616.185931,167.620613 617.132053,169.568518 C618.633698,172.605692 619.185274,173.074747 621.315037,173.074747 C624.708927,173.074747 626.049596,174.398543 627.547295,178.918462 C628.968452,183.358906 631.178702,196.294553 631.178702,200.265942 C631.178702,203.38259 633.703012,206.578712 636.150779,206.578712 C639.544669,206.578712 646.090987,209.305779 647.274627,211.253684 C647.90669,212.342953 649.722394,214.60486 651.30058,216.318237 C652.878767,218.031614 655.165559,220.913735 656.510174,222.706586 C657.770356,224.578913 659.505572,226.367869 660.375153,226.836924 C661.244734,227.30598 662.033827,228.784829 662.347886,230.343153 C662.585403,231.822002 662.899462,234.238963 663.136979,235.717812 C663.531526,237.900245 664.320619,238.83446 667.319963,240.627312 C673.475679,244.288594 673.632709,244.288594 675.524954,241.171946 C676.551565,239.458569 677.578175,238.603828 678.286781,238.83446 C678.918844,239.068988 679.788425,239.303516 680.182972,239.303516 C680.577518,239.303516 680.891577,240.162152 680.891577,241.251421 C680.891577,242.420164 681.761158,244.057962 682.783823,245.067756 C684.917531,246.940082 689.491116,256.365605 691.069302,262.054267 C692.095913,265.560495 691.938883,268.832197 690.755243,272.572953 C690.280209,273.976224 690.517726,274.286331 692.413917,274.520858 C694.068646,274.675912 694.781197,275.30002 695.252286,277.092872 C696.121866,280.519626 696.359383,289.169883 695.646832,292.596637 C695.014769,295.323704 695.095256,295.558232 696.435925,294.934123 C697.225019,294.624017 699.435269,294.31391 701.408002,294.31391 C704.326858,294.234436 705.039409,294.544542 705.985532,296.182341 C707.012142,298.050771 706.931655,299.998676 705.667527,310.831365 C705.272981,313.948013 705.433956,315.271809 706.380079,316.285499 C707.012142,316.985186 707.720748,318.308983 707.877778,319.167619 C708.115295,320.57089 708.666871,320.725943 712.298278,320.491415 L716.400774,320.181309 L716.400774,322.908376 C716.400774,324.4667 716.086715,325.945549 715.611681,326.180077 C715.217134,326.414605 714.822587,328.048507 714.822587,329.686306 C714.822587,332.023792 714.347553,333.037482 712.692825,334.361278 L710.563062,335.999076 L712.060761,341.997844 C713.244401,346.672816 714.428041,349.010302 717.346897,352.826638 C721.054846,357.50161 722.238486,361.631947 720.426728,362.80069 C719.005571,363.659327 717.189867,368.099771 717.189867,370.826838 C717.189867,372.385162 718.530537,376.515499 720.34624,380.25236 C722.004914,383.917538 723.659643,388.357982 723.89716,390.07136 C724.291706,392.798427 724.054189,393.498114 721.843939,395.760021 C718.768054,399.031723 716.638291,399.810884 711.271668,399.810884 C707.245714,399.810884 706.851167,399.965938 704.958922,402.693005 C703.223706,405.344493 702.986189,406.354287 702.986189,412.977164 C702.986189,419.289934 702.672129,420.848258 700.932968,424.354487 C699.040722,428.250297 698.251629,429.339565 693.674099,434.249065 C691.781853,436.276445 691.781853,436.431498 693.042035,438.379403 C694.463192,440.482361 699.829816,456.145075 699.829816,458.09298 C699.829816,459.027195 701.327515,459.182249 709.536452,458.717089 C720.660299,458.09298 732.971732,459.57183 737.154716,461.98879 C738.495385,462.767952 741.651758,463.85722 744.019038,464.326276 C758.931322,467.208396 768.794988,467.518503 782.60412,465.570598 C790.889599,464.401855 791.75918,464.401855 794.206947,465.570598 C797.282832,466.973868 799.569625,467.128922 802.886973,466.119128 C813.539732,462.767952 837.289071,456.379603 843.525275,455.131385 L848.022318,454.272749 L848.493406,450.221886 C848.887953,447.574293 850.784144,442.899321 853.783488,436.821079 L858.594589,427.471135 L858.043013,421.082786 C857.410949,413.291166 858.518047,407.133449 861.67442,401.603736 C862.934602,399.341829 863.961212,396.694237 863.961212,395.680547 C863.961212,389.761253 868.458255,381.890159 871.852145,381.890159 C872.798268,381.890159 875.560094,380.25236 878.007861,378.304455 C884.952671,372.695268 886.687887,372.07116 892.682629,373.164324 C904.124481,375.267282 911.620867,379.008039 920.618897,387.109765 C925.272969,391.47463 926.851156,390.850522 937.584402,381.031522 C942.000957,376.90508 946.421457,373.319377 947.36758,373.009271 C949.57783,372.305687 954.31239,374.333067 955.49603,376.436025 C955.971064,377.294661 956.128094,378.852985 955.890577,379.787201 C955.101483,382.200265 951.470076,387.344293 950.447411,387.423767 C949.972377,387.423767 947.842614,389.526725 945.632364,392.019265 C941.767385,396.38413 937.032826,399.810884 934.822576,399.810884 C934.190512,399.810884 932.612326,400.355519 931.348198,400.900153 C927.640249,402.772479 919.986833,404.485856 915.489791,404.485856 C911.544325,404.485856 911.22632,404.64091 909.253587,407.602504 C907.441829,410.329571 907.204312,411.188208 907.675401,414.614962 C908.387952,419.600041 907.047282,422.716689 901.918176,427.94019 C898.838345,431.056838 897.892222,432.615162 897.892222,434.404118 C897.892222,436.586551 896.628095,442.195738 892.682629,457.858452 C891.341959,463.233112 883.608056,478.895826 880.294654,482.791636 C878.084403,485.439228 870.116929,489.724619 862.777573,492.221054 C860.64781,492.920742 857.648466,494.244538 856.150767,495.178753 C851.33572,498.140348 820.166537,512.01021 818.274291,512.01021 C817.40471,512.01021 803.752608,515.671492 783.868247,521.360154 C779.528234,522.608372 773.295976,524.556276 770.059115,525.645545 C765.719102,527.203869 761.379089,527.983031 753.568644,528.60714 L743.072915,529.46188 L741.100182,532.50295 L739.127449,535.540123 L742.678368,546.603444 C747.018381,560.083725 748.044992,567.875345 747.094923,581.745208 C746.30583,593.587691 745.911283,595.380542 742.283822,603.172162 C740.782177,606.443864 739.203991,609.950092 738.889932,610.963782 C738.575873,612.053051 737.786779,613.611375 737.231258,614.470011 C736.603139,615.328648 736.128105,617.276553 736.128105,618.910455 C736.128105,620.468779 735.653071,624.130061 735.024953,627.091656 C734.392889,629.973776 733.841313,637.145183 733.760825,642.909424 C733.523308,659.581932 733.523308,659.581932 735.496042,660.440568 C736.442164,660.909624 738.257868,662.933107 739.598537,665.036066 C743.229945,670.87978 751.90997,692.465684 751.90997,695.502857 C751.90997,696.981707 752.304517,698.229924 752.779551,698.229924 C753.25064,698.229924 753.488157,701.891207 753.407669,709.058718 L753.25064,719.891407 L756.407013,725.655647 C758.142229,728.772295 759.957932,732.592526 760.509509,734.071376 C761.536119,736.798443 763.903399,756.822126 764.140916,764.069112 C764.378433,772.95 765.638615,782.069312 766.98323,785.027011 C767.772323,786.819863 768.480929,789.002296 768.480929,789.936511 C768.480929,790.9502 768.875475,791.729362 769.270022,791.729362 C769.745056,791.729362 770.059115,792.743052 770.059115,793.911795 C770.059115,795.080538 771.480272,801.703415 773.215488,808.481345 C775.107734,816.038437 776.214832,821.806573 775.896827,823.13037 C775.582768,824.454166 774.242099,826.091964 772.031848,827.570814 C768.005895,830.297881 766.113649,832.714841 766.113649,835.052327 C766.113649,836.841283 770.928696,846.505229 774.242099,851.25578 C777.555501,856.010226 776.846895,860.295617 772.663912,860.295617 C770.534149,860.295617 769.270022,863.956899 769.270022,870.579776 L769.270022,874.944642 L763.43231,880.319301 C756.249983,886.866599 754.43428,889.824298 753.802216,896.057594 C753.488157,898.709082 753.013123,900.967093 752.779551,901.122147 C752.542034,901.281096 751.201365,901.046568 749.85675,900.732566 C747.255898,900.032878 746.386318,898.474554 746.386318,894.49927 C746.386318,893.410001 745.677712,891.696624 744.808131,890.682934 C743.93855,889.669245 743.229945,888.110921 743.229945,887.097231 C743.229945,886.087437 742.75491,884.994273 742.203334,884.684166 C740.468118,883.591002 739.441508,879.774667 738.495385,870.035142 C737.392233,859.0474 737.943809,854.141796 741.651758,840.426986 C745.283165,826.946705 745.359707,826.322596 743.072915,823.830057 C737.549262,817.910763 737.392233,816.272965 741.257211,804.740588 C743.229945,799.051927 743.862008,796.014753 743.386974,795.156117 C742.75491,794.066848 742.440851,794.221902 741.100182,796.094228 C740.230601,797.33855 738.257868,801.079306 736.679681,804.430482 C733.998343,810.039669 733.760825,811.053359 733.760825,817.676236 C733.760825,821.647624 734.469431,830.766936 735.419499,838.010026 C737.074228,851.490307 737.074228,855.15159 735.496042,878.216343 C734.944465,886.70765 734.549919,888.735029 732.263126,893.799582 C723.74013,912.889051 716.163257,942.417732 717.427384,951.692097 C717.664901,953.484949 718.611024,958.235499 719.476659,962.210784 C720.897816,968.988714 720.978304,971.481253 720.583757,996.883492 C720.265753,1019.01013 720.426728,1026.72618 721.449393,1036.85528 C722.161944,1043.78826 722.71352,1053.13821 722.71352,1057.57865 C722.71352,1065.06017 722.55649,1065.99438 720.660299,1068.72145 C718.373507,1072.07262 718.453995,1070.97946 720.265753,1100.27751 C721.52988,1118.82234 721.215821,1130.89935 719.400117,1134.17105 C718.059448,1136.66359 715.136646,1137.75676 706.931655,1138.9255 C704.958922,1139.23561 700.30485,1140.48382 696.592955,1141.65257 C690.755243,1143.60047 688.468451,1143.91058 681.366612,1143.91058 C673.789738,1143.91058 671.502946,1143.36595 673.789738,1141.96267 C674.341314,1141.65257 674.341314,1141.02846 673.789738,1140.01477 C673.395192,1139.23561 673.000645,1135.10527 673.000645,1130.89935 C673.000645,1118.89792 672.606098,1118.11876 664.083102,1112.7441 C656.510174,1107.98965 651.063063,1104.01826 646.090987,1099.6534 L643.172131,1097.08139 L642.540067,1101.6013 C642.14552,1104.09384 641.911949,1111.73041 641.988491,1118.50834 L642.068978,1130.97493 L646.88008,1130.7443 C651.220093,1130.58535 651.852157,1130.7443 653.66786,1132.69221 C655.87811,1135.02969 656.824233,1138.84603 656.192169,1142.74184 C655.954652,1144.22069 656.115627,1145.62396 656.510174,1145.85848 C657.850844,1146.71712 657.21878,1153.10547 655.560106,1156.53222 C654.613983,1158.40455 652.170161,1161.28667 650.036453,1162.92057 C647.90669,1164.63785 646.171474,1166.50628 646.171474,1167.20596 C646.171474,1167.90955 649.959911,1172.34999 654.69447,1177.02496 C659.348543,1181.77941 664.477649,1187.23354 666.212865,1189.25703 C667.871539,1191.28441 672.211552,1194.94569 675.842959,1197.28318 C682.707281,1201.80309 684.837044,1203.98553 684.837044,1206.47807 C684.837044,1208.19144 679.788425,1215.28338 677.815692,1216.29317 C677.026599,1216.76222 673.946768,1216.76222 670.238819,1216.29317 C665.979293,1215.82801 662.110369,1215.90359 658.24539,1216.45212 C654.613983,1217.07233 649.484877,1217.15181 644.041712,1216.76222 C639.383694,1216.45212 631.887308,1216.13812 627.470753,1216.06254 C620.525943,1215.98306 619.185274,1215.74854 617.055511,1214.26969 C615.791384,1213.256 614.370227,1212.47683 613.97568,1212.47683 C613.581134,1212.47683 612.635011,1211.77715 611.845918,1210.91851 C611.056824,1210.05987 610.030214,1209.36019 609.478638,1209.36019 C609.003604,1209.36019 607.586392,1208.3465 606.322265,1207.0227 C604.506561,1205.15427 603.954985,1203.82658 603.717468,1200.08972 C603.560439,1197.59328 603.797956,1194.86621 604.192502,1194.01147 C604.744078,1192.99778 604.901108,1188.63292 604.587049,1181.46541 L604.112015,1170.40209 L600.798612,1170.40209 C593.539743,1170.40209 586.357416,1161.13162 586.832451,1152.32631 C586.98948,1150.68851 588.092633,1149.44419 591.409981,1146.94775 C593.853802,1145.1588 596.064053,1143.05194 596.221082,1142.27278 C596.539087,1141.10404 597.404722,1140.79393 600.484553,1140.79393 C602.614316,1140.79393 604.349532,1140.5594 604.349532,1140.2493 C604.349532,1139.93529 603.322921,1136.66359 601.982252,1133.00231 C599.220426,1124.97616 596.458599,1114.692 596.458599,1112.04441 C596.378112,1110.95125 595.826536,1108.61376 595.194472,1106.90039 C594.485866,1105.18701 593.853802,1100.90162 593.696773,1097.39539 C593.459256,1092.09631 593.064709,1090.38293 591.091976,1086.8767 C588.805184,1082.90142 559.451704,977.63897 552.977983,952.236731 C551.242767,945.613854 548.798945,936.888019 547.45433,932.992209 C545.481597,926.993441 545.010508,924.497006 545.010508,918.188132 C545.010508,911.410202 545.324567,909.61735 547.848877,902.29089 C551.085737,892.785893 554.874174,884.060058 556.134356,883.36037 C556.60939,883.046368 557.003937,880.788356 557.003937,878.371396 C556.923449,872.917262 553.533504,855.231064 552.03186,852.973053 C550.453673,850.556092 545.481597,835.752015 544.378444,830.142827 C543.432322,825.467856 543.508864,820.713409 544.853479,803.182264 C545.324567,797.104022 545.248025,796.404334 544.064385,796.404334 C541.697106,796.404334 530.963859,791.649888 530.174766,790.250513 C529.699732,789.312402 529.937249,788.223134 530.963859,786.66481 C531.752952,785.416592 532.304529,784.092796 532.067012,783.782689 C531.83344,783.393108 529.46616,782.069312 526.780876,780.74162 C521.414253,778.094028 518.338367,775.677067 518.338367,774.043165 C518.338367,772.639894 518.181338,772.719368 512.971744,775.287486 C510.527922,776.535704 507.134032,778.952664 505.475358,780.666041 C502.951049,783.238055 502.399472,784.482377 501.767409,788.378187 C500.897828,794.611483 499.875163,796.404334 497.189879,796.404334 C495.611692,796.404334 494.033506,795.390645 491.746714,793.053159 C488.74737,790.015985 488.433311,789.391877 488.115306,784.716905 C487.958277,781.910363 487.012154,777.704447 486.066031,775.366961 C484.250328,770.771463 484.32687,767.964922 486.460578,761.186992 C487.644218,757.601288 491.428709,753.240319 497.427396,748.565347 C499.005582,747.237655 501.215833,744.900169 502.242443,743.341845 C503.265108,741.707942 504.766752,739.760037 505.632388,738.980875 C507.053544,737.732658 507.134032,736.563915 507.053544,727.058918 C506.896515,716.774759 506.977002,716.460756 509.183307,712.723896 C510.447435,710.617042 513.289748,707.035234 515.496053,704.697748 L519.602494,700.56741 L526.148812,700.56741 C535.541389,700.56741 538.774304,702.904896 545.956631,715.061382 L548.955974,720.125934 L551.87483,716.071176 C553.453017,713.892639 555.42575,710.541463 556.214843,708.669137 C557.084424,706.800706 558.501636,704.228693 559.528246,702.904896 C561.18692,700.646885 561.18692,700.487936 559.922792,698.309399 C558.344606,695.657911 558.107089,688.800506 559.528246,684.904696 C561.02989,680.543727 568.13173,672.438104 577.995395,663.867323 C589.908336,653.507585 595.589018,647.818923 596.14454,645.63649 C596.378112,644.622801 595.669506,641.820155 594.405379,638.934139 C592.432645,634.493695 592.199074,632.935371 592.118586,624.599117 C591.961557,615.249173 590.620887,607.457553 588.016091,601.379311 C587.069968,599.276352 585.491781,597.718028 582.335408,595.770123 C577.757878,593.043057 572.628772,588.523138 570.575551,585.40649 C569.472399,583.693113 569.234882,583.92764 562.608077,593.587691 C558.81964,599.121299 554.085081,605.899229 551.955318,608.781349 C548.48094,613.690849 536.487512,633.869586 536.487512,634.883276 C536.487512,635.117804 535.698419,636.596653 534.752296,638.154977 C531.672465,642.909424 527.018393,654.052219 527.018393,656.31023 C527.018393,657.558448 527.726999,659.971513 528.677067,661.764364 C531.83344,667.922082 530.331795,676.882444 525.04566,683.735953 C522.83541,686.542495 515.576541,690.438305 512.420168,690.438305 C511.317015,690.438305 510.133375,691.062413 509.658341,691.917154 C509.106765,693.085897 507.999667,693.399899 505.161299,693.399899 C498.454006,693.399899 497.821942,693.554952 497.821942,694.644221 C497.821942,696.6716 496.324243,696.826654 492.612349,695.192751 C488.038764,693.165371 487.801247,693.165371 487.169184,695.192751 C486.299603,697.840343 482.748683,696.826654 480.856438,693.399899 C479.986857,691.762101 478.964192,690.438305 478.489158,690.438305 C476.991459,690.438305 469.414585,681.557416 469.414585,679.764565 C469.414585,678.6714 468.939551,677.971713 468.230945,677.971713 C466.652759,677.971713 463.101839,675.713701 463.101839,674.700012 C463.101839,674.230956 464.522996,672.207472 466.258212,670.100618 L469.495073,666.363758 L466.966818,665.11554 C464.760513,663.946797 464.522996,663.557216 464.917543,660.985202 C465.074572,659.3513 466.415242,655.141488 467.836399,651.480205 C470.046649,645.791544 471.073259,644.23322 475.413272,640.102882 C478.883704,636.831181 480.461891,634.807697 480.461891,633.480005 C480.461891,632.390737 481.013467,630.752938 481.726018,629.743144 C482.829171,628.260399 483.618264,628.025871 486.460578,628.260399 L489.93101,628.494927 L490.720103,624.209536 C491.195137,621.87205 492.29829,617.586659 493.16787,614.780118 C494.585082,609.950092 496.400786,598.49719 495.768722,597.797503 C495.611692,597.638554 493.638959,598.342137 491.352167,599.355827 C487.801247,600.914151 485.905056,601.224257 478.332128,601.224257 C472.333441,601.224257 469.177068,601.534364 468.545005,602.158473 C467.284823,603.40669 463.415898,603.482269 462.707293,602.313526 C462.393234,601.923945 462.78778,600.834676 463.576873,599.97604 C464.285479,599.196878 464.760513,598.342137 464.599538,598.262663 C464.442509,598.107609 462.94481,597.173394 461.286136,596.239179 C457.497699,593.977272 456,591.794839 456,588.523138 C456,583.069004 460.102496,578.238979 464.599538,578.238979 C465.469119,578.238979 467.284823,576.915183 468.70598,575.122331 C471.230289,572.085157 473.674111,571.071468 474.306174,572.939898 C474.543691,573.643481 476.516425,573.329479 481.565043,571.695577 C485.905056,570.292306 489.536463,569.588722 491.509196,569.82325 C493.244413,569.978303 494.665569,569.978303 494.665569,569.747672 C494.665569,569.588722 493.087383,567.720292 491.11465,565.692913 C488.352823,562.810792 487.56373,561.331943 487.56373,559.304563 C487.56373,555.877809 490.639616,552.995689 496.243756,551.35789 C504.054201,549.099879 504.529235,548.630823 504.372206,544.424907 C504.291718,542.242474 503.502625,539.28088 502.476014,537.412449 C500.821286,534.216327 500.821286,534.061274 502.081468,529.072299 C502.794019,526.269654 503.345595,521.82921 503.345595,519.177721 C503.345595,514.347696 503.345595,514.347696 505.632388,514.347696 C507.291062,514.347696 507.999667,513.878641 508.394214,512.554844 C509.501312,508.424507 509.183307,508.1144 504.054201,508.1144 C499.243099,508.1144 494.665569,506.401023 494.665569,504.528697 C494.665569,502.894794 502.399472,499.388565 505.555845,499.698672 C508.237184,499.933199 508.555189,499.698672 509.895858,496.971605 C510.761494,495.413281 511.711562,491.672524 512.182651,488.790404 C513.998354,476.478865 514.392901,475.54465 516.997698,478.116664 C518.889943,479.985094 519.441519,484.584488 518.495397,490.1142 C517.863333,493.699904 517.863333,495.413281 518.495397,496.426971 C519.207948,497.516239 518.970431,498.374875 516.997698,500.791836 C515.73357,502.505213 514.155384,504.608171 513.684295,505.621861 C512.814714,507.255764 512.895202,507.490292 514.312413,507.879873 C516.446121,508.424507 516.91721,510.217358 515.971087,513.568534 C515.101507,516.450654 514.867935,522.139316 515.576541,522.139316 C515.8906,522.139316 517.07424,521.594682 518.418855,520.891098 C521.180681,519.567302 524.099537,520.111937 523.70499,521.984263 C523.467473,523.228584 522.126804,524.087221 516.365634,526.57976 C513.998354,527.672924 512.734227,528.917246 511.317015,531.723788 C509.738829,535.074963 509.501312,536.474338 509.577854,544.57996 C509.738829,553.929904 510.209917,555.877809 512.025621,553.695376 C512.577197,553.071268 513.446778,552.526633 513.917867,552.526633 C515.73357,552.526633 520.625159,546.527865 526.148812,537.488028 C533.093622,526.1146 534.909325,522.218791 534.909325,518.712562 C534.909325,517.229816 535.460902,514.347696 536.173453,512.320317 C537.590664,508.269454 545.324567,496.816552 547.615305,495.413281 C548.48094,494.868647 549.113004,493.934431 549.113004,493.310323 C549.113004,490.193675 551.87483,482.32258 555.506238,474.689909 C560.474369,464.481329 566.316026,450.611467 570.575551,438.768984 C573.812412,429.888095 573.888954,429.729146 573.731924,419.600041 L573.574895,409.470935 L580.676734,399.031723 L580.676734,373.164324 L577.282844,368.799458 C571.996708,361.866475 564.105776,348.6963 564.105776,346.748395 C564.105776,345.81418 564.657352,344.410909 565.369903,343.631747 C566.473056,342.463004 566.392568,341.997844 564.975357,338.956775 C562.841648,334.12675 562.290072,330.855049 563.39717,329.141672 C564.105776,327.893454 564.025288,326.959239 562.608077,323.922066 C561.738496,321.815212 560.949403,319.402147 560.949403,318.54351 C560.949403,317.68877 560.554856,315.66139 560.00328,313.948013 C559.290729,311.531053 559.290729,310.517363 560.00328,309.34862 C560.554856,308.569458 560.949403,307.245662 560.949403,306.4665 C560.949403,305.611759 561.581467,304.443016 562.37056,303.663854 C563.236195,302.960271 564.343293,301.012366 564.894869,299.298989 C565.76445,296.571922 565.76445,295.79276 564.58081,293.30022 C562.684619,289.01483 561.658009,281.688369 562.21353,276.234236 L562.765106,271.40421 L557.79303,266.494711 C551.560771,260.106362 551.00525,259.092672 553.138958,258.003403 C554.556169,257.224241 555.26872,257.613822 559.371216,261.819739 C561.818984,264.391753 564.814382,267.663454 565.921479,269.066724 C567.024632,270.469995 568.13173,271.40421 568.445789,271.169683 C568.683306,270.939051 567.576208,269.066724 565.998021,267.043241 C560.635344,260.030783 559.765763,257.224241 559.765763,246.315974 C559.84625,235.407706 561.106432,228.240195 563.39717,225.978288 C564.894869,224.499438 564.894869,224.419964 563.079165,222.706586 C562.052555,221.772371 560.240797,218.345617 559.057157,215.149494 C556.371873,207.82693 555.820297,206.81324 553.453017,203.541539 C550.928708,200.190363 550.928708,198.787093 553.453017,198.787093 C554.556169,198.787093 555.42575,199.097199 555.42575,199.566255 C555.42575,199.955836 556.134356,200.345417 557.003937,200.345417 C560.474369,200.345417 563.079165,202.527849 564.975357,206.968293 C565.921479,209.305779 567.024632,211.253684 567.419178,211.253684 C567.737183,211.253684 568.683306,212.577481 569.548941,214.135805 C570.338034,215.773603 571.759191,217.721508 572.548285,218.50067 C574.126471,219.824466 574.126471,219.824466 573.417865,215.459601 C573.023319,213.046536 572.310767,210.319469 571.916221,209.460833 C570.732581,207.437349 570.813068,200.655523 571.916221,199.256148 C572.866289,198.162984 571.288103,194.656755 566.078509,186.710082 C564.58081,184.293121 563.316683,182.190163 563.316683,182.03511 C563.316683,181.800582 562.447102,180.321733 561.500979,178.683934 C557.398483,172.295585 552.269377,162.945641 552.269377,161.856373 C552.269377,161.307843 552.820953,160.608155 553.453017,160.298049 C554.085081,160.063521 554.636657,159.359938 554.636657,158.66025 C554.636657,158.036142 555.188233,157.491507 555.820297,157.491507 C556.45236,157.491507 557.003937,156.946873 557.003937,156.322764 C557.003937,154.919494 553.05847,146.503765 551.00525,143.311539 C550.216156,142.142796 549.745068,141.049631 549.902097,140.894578 C550.139614,140.66005 552.112347,140.270469 554.39914,139.960363 C558.425093,139.415729 558.501636,139.491307 559.765763,141.987742 C560.554856,143.387117 562.684619,146.114184 564.58081,148.141564 C566.473056,150.168943 568.759848,153.516223 569.709916,155.623077 C571.759191,160.218574 573.337378,162.166479 575.153081,162.166479 C577.282844,162.166479 580.676734,165.203653 580.676734,167.075979 C580.676734,168.010194 581.22831,169.489044 581.860374,170.268206 C582.492438,171.126842 583.044014,172.995273 583.044014,174.398543 C583.044014,175.801814 583.75262,178.838987 584.702688,181.255948 C585.96287,184.607124 586.675421,185.541339 587.935603,185.541339 C590.777917,185.541339 595.589018,188.188931 595.826536,189.82673 C595.983565,190.685366 595.826536,192.319269 595.431989,193.567486 C593.853802,198.318037 597.32818,202.138268 600.484553,199.097199 C601.901765,197.61835 601.901765,197.538875 600.090006,193.72254 C599.139938,191.540107 597.722727,189.357674 597.010175,188.737461 C596.221082,188.188931 595.669506,187.334191 595.669506,186.94461 C595.669506,186.555029 594.880413,185.461864 593.93429,184.607124 C592.670163,183.593434 592.432645,182.969325 593.145197,182.734797 C594.566354,182.114584 594.328837,180.556261 592.513133,178.918462 C591.486523,178.059826 591.015434,176.660451 591.091976,175.102127 C591.172464,173.774435 590.38337,169.413465 589.35676,165.362602 C587.698086,158.580776 587.621544,157.960563 588.805184,157.101926 C591.172464,155.388549 590.459912,151.023684 586.675421,143.621645 C584.702688,139.880888 582.41195,135.830025 581.546315,134.585703 C580.676734,133.258011 580.125158,132.01369 580.362675,131.624109 C580.596247,131.310106 582.335408,131 584.227654,131 C587.464514,131 587.698086,131.155053 589.35676,134.506229 Z" id="Path" fill="#FFFFFF"></path>
        </g>
    </g>
</svg>